<svg height="512pt" viewBox="0 -15 512 512" width="512pt" xmlns="http://www.w3.org/2000/svg" xmlns:xlink="http://www.w3.org/1999/xlink"><linearGradient id="a"><stop offset="0" stop-color="#fffcf8"/><stop offset=".1875" stop-color="#faf8f6"/><stop offset=".4041" stop-color="#eceef2"/><stop offset=".6353" stop-color="#d5dcea"/><stop offset=".875" stop-color="#b5c4df"/><stop offset="1" stop-color="#a1b5d8"/></linearGradient><linearGradient id="b" gradientUnits="userSpaceOnUse" x1="213.662711416" x2="418.7001265768" xlink:href="#a" y1="162.9197813346" y2="662.4950610938"/><linearGradient id="c"><stop offset="0" stop-color="#a1b5d8" stop-opacity="0"/><stop offset=".0343" stop-color="#9fb3d5" stop-opacity=".035294"/><stop offset=".4515" stop-color="#8898af" stop-opacity=".45098"/><stop offset=".788" stop-color="#798898" stop-opacity=".788235"/><stop offset="1" stop-color="#748290"/></linearGradient><linearGradient id="d" gradientUnits="userSpaceOnUse" x1="247.8664343482" x2="-285.8817479378" xlink:href="#c" y1="301.8951132074" y2="187.985404654"/><linearGradient id="e" gradientTransform="matrix(0 1.003922 -1.003922 0 523.445911 11.357665)" gradientUnits="userSpaceOnUse" x1="214.4135" x2="214.4135" xlink:href="#a" y1="459.0039" y2="549.8695"/><linearGradient id="f" gradientUnits="userSpaceOnUse" x1="238.9445795342" x2="156.3937801416" xlink:href="#c" y1="196.0535241992" y2="126.9683305926"/><linearGradient id="g" gradientUnits="userSpaceOnUse" x1="445.753917025" x2="373.7414876508" xlink:href="#c" y1="171.5670634816" y2="143.9037919872"/><linearGradient id="h" gradientUnits="userSpaceOnUse" x1="389.2267837164" x2="307.4086465994" xlink:href="#c" y1="205.056596303" y2="136.584598254"/><linearGradient id="i" gradientUnits="userSpaceOnUse" x1="316.8261377048" x2="247.4785188874" xlink:href="#c" y1="225.5488529514" y2="167.5132264456"/><linearGradient id="j" gradientUnits="userSpaceOnUse" x1="210.5834818576" x2="210.5834818576" y1="132.1394324224" y2="220.1673290704"><stop offset="0" stop-color="#00e7b2"/><stop offset=".2459" stop-color="#05e5b1"/><stop offset=".5301" stop-color="#13ddac"/><stop offset=".8322" stop-color="#2ad1a5"/><stop offset="1" stop-color="#3ac9a0"/></linearGradient><linearGradient id="k" gradientUnits="userSpaceOnUse" x1="281.1198447152" x2="281.1198447152" y1="169.5936540062" y2="223.447443421"><stop offset="0" stop-color="#ffc738"/><stop offset=".4286" stop-color="#ffbb23"/><stop offset="1" stop-color="#ffa700"/></linearGradient><linearGradient id="l"><stop offset="0" stop-color="#ff4974"/><stop offset=".3262" stop-color="#fe4672"/><stop offset=".5324" stop-color="#fb3e6c"/><stop offset=".7054" stop-color="#f52f60"/><stop offset=".8591" stop-color="#ee1a51"/><stop offset="1" stop-color="#e4003d"/></linearGradient><linearGradient id="m" gradientUnits="userSpaceOnUse" x1="351.6562075728" x2="351.6562075728" xlink:href="#l" y1="134.217852139" y2="220.349340129"/><linearGradient id="n" gradientUnits="userSpaceOnUse" x1="422.1925704304" x2="422.1925704304" y1="99.2998387038" y2="217.291393717"><stop offset="0" stop-color="#3b395f"/><stop offset=".0633" stop-color="#37355a"/><stop offset=".4033" stop-color="#232543"/><stop offset=".7232" stop-color="#171b35"/><stop offset="1" stop-color="#131830"/></linearGradient><linearGradient id="o" gradientUnits="userSpaceOnUse" x1="316.3878253596" x2="316.3878253596" xlink:href="#a" y1="254.4618065514" y2="261.4873530996"/><linearGradient id="p" gradientUnits="userSpaceOnUse" x1="193.1590100568" x2="145.7517049806" xlink:href="#c" y1="279.2147081678" y2="231.8074030916"/><linearGradient id="q" gradientUnits="userSpaceOnUse" x1="478.2236658788" x2="453.447473272" xlink:href="#c" y1="275.339167679" y2="250.5629750722"/><linearGradient id="r"><stop offset="0" stop-color="#fffcf8"/><stop offset=".2239" stop-color="#fbf9f7"/><stop offset=".4254" stop-color="#f0f1f3"/><stop offset=".6183" stop-color="#dee3ed"/><stop offset=".8059" stop-color="#c4d0e4"/><stop offset=".9882" stop-color="#a3b7d9"/><stop offset="1" stop-color="#a1b5d8"/></linearGradient><radialGradient id="s" cx="159.8797988944" cy="240.1624435444" gradientUnits="userSpaceOnUse" r="28.9252014484" xlink:href="#r"/><radialGradient id="t" cx="448.8184893222" cy="240.1624435444" gradientUnits="userSpaceOnUse" r="28.9252014484" xlink:href="#r"/><radialGradient id="u" cx="246.646568726" cy="339.3802555888" gradientUnits="userSpaceOnUse" r="123.0704968034"><stop offset="0" stop-color="#3b395f"/><stop offset=".5234" stop-color="#39385d"/><stop offset=".7119" stop-color="#343356"/><stop offset=".8463" stop-color="#2a2b4b"/><stop offset=".9541" stop-color="#1b1f3a"/><stop offset="1" stop-color="#131830"/></radialGradient><linearGradient id="v" gradientUnits="userSpaceOnUse" x1="277.853484096" x2="267.8618499988" y1="391.0402746492" y2="326.3326829236"><stop offset="0" stop-color="#131830" stop-opacity="0"/><stop offset="1" stop-color="#131830"/></linearGradient><radialGradient id="w" cx="229.0204089954" cy="329.2520880996" gradientUnits="userSpaceOnUse" r="113.2567576846"><stop offset="0" stop-color="#00e7b2"/><stop offset=".3524" stop-color="#03e6b1"/><stop offset=".5753" stop-color="#0be1af"/><stop offset=".7622" stop-color="#1adaaa"/><stop offset=".9283" stop-color="#2fcfa4"/><stop offset="1" stop-color="#3ac9a0"/></radialGradient><linearGradient id="x" gradientTransform="matrix(1.003922 -.00421647 .00421647 1.003922 8.566262 -9.930893)" gradientUnits="userSpaceOnUse" x1="292.487" x2="208.6015" y1="354.0319" y2="305.6912"><stop offset="0" stop-color="#3ac9a0" stop-opacity="0"/><stop offset=".0351" stop-color="#38c69d" stop-opacity=".035294"/><stop offset=".4167" stop-color="#23aa82" stop-opacity=".415686"/><stop offset=".7511" stop-color="#169971" stop-opacity=".752941"/><stop offset="1" stop-color="#11936b"/></linearGradient><radialGradient id="y" cx="212.7991377116" cy="273.4826147244" gradientUnits="userSpaceOnUse" r="108.58420352" xlink:href="#l"/><path d="m0 450.136719v-368.121094c0-17.140625 13.894531-31.035156 31.03125-31.035156h449.9375c17.136719 0 31.03125 13.894531 31.03125 31.035156v368.121094c0 17.136719-13.894531 31.03125-31.03125 31.03125h-449.9375c-17.136719 0-31.03125-13.894531-31.03125-31.03125zm0 0" fill="url(#b)"/><path d="m0 82.015625v368.121094c0 17.136719 13.894531 31.03125 31.03125 31.03125h449.9375c17.136719 0 31.03125-13.894531 31.03125-31.03125v-19.476563l-379.679688-379.679687h-101.289062c-17.136719 0-31.03125 13.894531-31.03125 31.035156zm0 0" fill="url(#d)"/><path d="m132.320312 399.152344v-368.121094c0-17.136719-13.890624-31.03125-31.03125-31.03125h-40.902343c-33.351563 0-60.386719 27.035156-60.386719 60.386719v392.835937c0-12.722656 10.316406-23.039062 23.039062-23.039062h78.25c17.140626 0 31.03125-13.890625 31.03125-31.03125zm0 0" fill="url(#e)"/><g fill="#a1b5d8"><path d="m373.832031 334.207031h94.066407v16.273438h-94.066407zm0 0"/><path d="m373.832031 374.417969h94.066407v16.273437h-94.066407zm0 0"/><path d="m373.832031 414.632812h74.90625v16.273438h-74.90625zm0 0"/></g><path d="m239.132812 108.332031h-57.101562v120.285157l47.132812 47.128906h57.101563v-120.28125zm0 0" fill="url(#f)"/><path d="m450.742188 67.390625h-57.101563v161.226563l47.132813 47.128906h57.097656v-161.226563zm0 0" fill="url(#g)"/><path d="m380.207031 110.925781h-57.101562v117.691407l47.128906 47.128906h57.101563v-117.691406zm0 0" fill="url(#h)"/><path d="m309.667969 155.03125h-57.097657v73.585938l47.128907 47.128906h57.101562v-73.585938zm0 0" fill="url(#i)"/><path d="m182.03125 108.332031h57.101562v120.285157h-57.101562zm0 0" fill="url(#j)"/><path d="m252.570312 155.03125h57.101563v73.585938h-57.101563zm0 0" fill="url(#k)"/><path d="m323.105469 110.925781h57.101562v117.691407h-57.101562zm0 0" fill="url(#m)"/><path d="m393.640625 67.390625h57.101563v161.226563h-57.101563zm0 0" fill="url(#n)"/><path d="m171.917969 254.460938h288.9375v7.027343h-288.9375zm0 0" fill="url(#o)"/><path d="m181.359375 249.214844c-2.355469-2.539063-5.707031-4.132813-9.441406-4.132813-7.121094 0-12.894531 5.769531-12.894531 12.890625 0 3.734375 1.597656 7.085938 4.136718 9.441406l34.019532 34.019532c2.351562 2.539062 5.707031 4.132812 9.4375 4.132812 7.121093 0 12.894531-5.769531 12.894531-12.890625 0-3.734375-1.59375-7.089843-4.132813-9.441406zm0 0" fill="url(#p)"/><path d="m506.214844 285.441406c-2.847656 7.746094-7.691406 14.53125-13.90625 19.714844-2.410156-.636719-4.550782-1.949219-6.191406-3.71875l-34.019532-34.023438c-2.539062-2.355468-4.132812-5.703124-4.132812-9.441406 0-4.203125 2.007812-7.925781 5.121094-10.285156 2.160156-1.636719 4.851562-2.605469 7.765624-2.605469 2.917969 0 5.601563.96875 7.753907 2.605469.613281.453125 1.171875.96875 1.691406 1.527344l34.023437 34.023437c.71875.65625 1.351563 1.398438 1.894532 2.203125zm0 0" fill="url(#q)"/><path d="m184.8125 257.976562c0 7.117188-5.773438 12.890626-12.894531 12.890626-7.121094 0-12.894531-5.773438-12.894531-12.890626 0-7.121093 5.773437-12.894531 12.894531-12.894531 7.121093 0 12.894531 5.773438 12.894531 12.894531zm0 0" fill="url(#s)"/><path d="m473.75 257.976562c0 7.117188-5.773438 12.890626-12.894531 12.890626-7.117188 0-12.890625-5.773438-12.890625-12.890626 0-7.121093 5.773437-12.894531 12.890625-12.894531 7.121093 0 12.894531 5.773438 12.894531 12.894531zm0 0" fill="url(#t)"/><path d="m350.3125 369.117188c0 52.820312-42.820312 95.640624-95.644531 95.640624-52.820313 0-95.644531-42.820312-95.644531-95.640624 0-52.824219 42.824218-95.644532 95.644531-95.644532 52.824219 0 95.644531 42.820313 95.644531 95.644532zm0 0" fill="url(#u)"/><path d="m187.035156 301.488281 135.261719 135.257813c17.308594-17.308594 28.015625-41.21875 28.015625-67.628906 0-24.171876-8.96875-46.242188-23.757812-63.082032-.085938-.085937-.171876-.171875-.257813-.253906-.902344-.941406-1.824219-1.863281-2.765625-2.765625-17.453125-18.164063-41.929688-29.542969-68.863281-29.542969-.039063 0-.078125 0-.117188 0-.761719 0-1.519531.011719-2.277343.03125-22.054688.550782-43.207032 8.722656-59.878907 23.019532-.058593.050781-.117187.101562-.171875.148437-.492187.425781-.980468.855469-1.464844 1.292969-.105468.09375-.210937.1875-.316406.28125-.457031.414062-.910156.835937-1.359375 1.261718-.121093.113282-.246093.226563-.367187.34375-.566406.535157-1.125 1.082032-1.675782 1.636719-.003906 0-.003906 0-.003906 0zm0 0" fill="url(#v)"/><path d="m254.667969 369.117188-67.632813-67.628907c17.929688-17.929687 42.277344-28.015625 67.632813-28.015625 52.46875 0 95.644531 43.175782 95.644531 95.644532zm0 0" fill="url(#w)"/><path d="m350.511719 368.777344c-.035157-7.660156-.992188-15.113282-2.753907-22.261719l-71.007812-70.417969c-3.160156-.75-6.378906-1.34375-9.648438-1.769531-.261718-.035156-.527343-.070313-.792968-.105469-.5-.058594-1-.113281-1.5-.167968-.40625-.039063-.816406-.082032-1.222656-.117188-.425782-.039062-.847657-.078125-1.273438-.109375-.492188-.039063-.984375-.074219-1.480469-.105469-.367187-.023437-.734375-.046875-1.101562-.066406-.582031-.027344-1.164063-.046875-1.746094-.066406-.289063-.011719-.582031-.023438-.875-.03125-.878906-.019532-1.761719-.03125-2.640625-.027344-21.394531.089844-42.039062 7.355469-58.695312 20.4375-3.085938 2.425781-6.03125 5.046875-8.820313 7.859375l67.914063 67.34375zm0 0" fill="url(#x)"/><path d="m254.667969 369.117188-67.632813-67.628907c17.929688-17.929687 42.277344-28.015625 67.632813-28.015625 7.488281 0 14.949219.878906 22.230469 2.617188zm0 0" fill="url(#y)"/></svg>