<?xml version="1.0"?>
<svg xmlns="http://www.w3.org/2000/svg" xmlns:xlink="http://www.w3.org/1999/xlink" xmlns:svgjs="http://svgjs.com/svgjs" version="1.1" width="512" height="512" x="0" y="0" viewBox="0 0 360.33 360.33" style="enable-background:new 0 0 512 512" xml:space="preserve" class=""><g>
<g xmlns="http://www.w3.org/2000/svg">
	<g>
		<path d="M335.107,181.469c16.514-17.307,25.223-37.758,25.223-59.309c0-27.331-14.085-52.926-39.659-72.072    c-25.126-18.811-58.453-29.17-93.841-29.17c-35.387,0-68.715,10.36-93.841,29.17C107.415,69.235,93.33,94.83,93.33,122.161    s14.085,52.927,39.659,72.072c25.127,18.811,58.453,29.17,93.841,29.17c24.203,0,47.806-4.925,68.433-14.259l49.895,23.085    l-2.042-10.02C342.039,216.923,336.791,190.087,335.107,181.469z M295.24,197.736l-2.186,1.034    c-19.77,9.348-42.669,14.289-66.223,14.289c-67.909,0-123.157-40.777-123.157-90.899s55.247-90.899,123.157-90.899    c67.909,0,123.157,40.777,123.157,90.899c0,19.572-8.343,38.235-24.127,53.971l-1.953,1.947l0.528,2.707    c0.054,0.274,3.989,20.434,6.562,33.494L295.24,197.736z" fill="#ffffff" data-original="#000000" style="" class=""/>
	</g>
</g>
<g xmlns="http://www.w3.org/2000/svg">
	<g>
		<path d="M265.46,213.894l-10.14,2.04c0.887,4.408,1.337,8.922,1.337,13.415c0,50.122-55.248,90.898-123.157,90.898    c-23.553,0-46.453-4.942-66.223-14.289l-2.186-1.034l-35.757,16.543c2.572-13.06,6.508-33.22,6.562-33.494l0.529-2.707    l-1.953-1.948c-15.784-15.734-24.127-34.398-24.127-53.97c0-40.838,37.27-76.896,90.635-87.685l-2.05-10.138    C40.681,143.3,0,183.527,0,229.347c0,21.551,8.709,42.001,25.222,59.307c-1.684,8.617-6.931,35.453-8.008,40.739l-2.042,10.02    l49.895-23.083c20.627,9.335,44.23,14.259,68.433,14.259c35.387,0,68.715-10.359,93.841-29.17    C252.916,282.272,267,256.676,267,229.346C267.001,224.172,266.482,218.971,265.46,213.894z" fill="#ffffff" data-original="#000000" style="" class=""/>
	</g>
</g>
<g xmlns="http://www.w3.org/2000/svg">
	<g>
		<rect x="50.825" y="226.34" width="121.74" height="10.343" fill="#ffffff" data-original="#000000" style="" class=""/>
	</g>
</g>
<g xmlns="http://www.w3.org/2000/svg">
	<g>
		<rect x="73.64" y="264.391" width="121.74" height="10.343" fill="#ffffff" data-original="#000000" style="" class=""/>
	</g>
</g>
<g xmlns="http://www.w3.org/2000/svg">
	<g>
		<path d="M256.233,69.584c-8.094-8.094-18.679-12.637-29.804-12.792c-11.671-0.178-22.658,4.256-30.957,12.44    c-8.3,8.185-12.872,19.113-12.872,30.769h10.343c0-8.867,3.477-17.178,9.791-23.405c6.313-6.225,14.659-9.589,23.55-9.462    c17.32,0.241,32.156,15.078,32.398,32.397c0.167,12.051-6.257,23.215-16.764,29.133c-13.123,7.391-21.275,21.397-21.275,36.552    h10.343c0-11.426,6.134-21.979,16.008-27.539c13.808-7.778,22.25-22.45,22.03-38.289C268.87,88.263,264.327,77.678,256.233,69.584    z" fill="#ffffff" data-original="#000000" style="" class=""/>
	</g>
</g>
<g xmlns="http://www.w3.org/2000/svg">
	<g>
		<rect x="220.65" y="178.251" width="10.343" height="15.216" fill="#ffffff" data-original="#000000" style="" class=""/>
	</g>
</g>
<g xmlns="http://www.w3.org/2000/svg">
</g>
<g xmlns="http://www.w3.org/2000/svg">
</g>
<g xmlns="http://www.w3.org/2000/svg">
</g>
<g xmlns="http://www.w3.org/2000/svg">
</g>
<g xmlns="http://www.w3.org/2000/svg">
</g>
<g xmlns="http://www.w3.org/2000/svg">
</g>
<g xmlns="http://www.w3.org/2000/svg">
</g>
<g xmlns="http://www.w3.org/2000/svg">
</g>
<g xmlns="http://www.w3.org/2000/svg">
</g>
<g xmlns="http://www.w3.org/2000/svg">
</g>
<g xmlns="http://www.w3.org/2000/svg">
</g>
<g xmlns="http://www.w3.org/2000/svg">
</g>
<g xmlns="http://www.w3.org/2000/svg">
</g>
<g xmlns="http://www.w3.org/2000/svg">
</g>
<g xmlns="http://www.w3.org/2000/svg">
</g>
</g></svg>
