<svg id="Layer_1" data-name="Layer 1" xmlns="http://www.w3.org/2000/svg" viewBox="0 0 193.13 168"><defs><style>.cls-1{fill:#110239;}.cls-2{fill:#01c7e2;}.cls-3{fill:#d0d1de;}.cls-4{fill:#9698b5;}.cls-5{fill:#fd425f;}.cls-6{fill:#fff;}.cls-7{fill:#e5e6ed;}.cls-8{fill:#9a94ab;}.cls-9{fill:#f88667;}.cls-10{fill:#e45940;}.cls-11{fill:#e01f41;}.cls-12{fill:#b8b9cd;}</style></defs><title>digital-marketing-2</title><polygon class="cls-1" points="114.25 158.86 78.88 158.86 81.78 116.72 111.34 116.72 114.25 158.86"/><path class="cls-1" d="M205.08,222.11a2.33,2.33,0,0,0-1.92-1h-40.8a2.33,2.33,0,0,0-1.92,1L155.09,230a2.29,2.29,0,0,0,1.92,3.56h51.5a2.29,2.29,0,0,0,1.92-3.56Z" transform="translate(-86.2 -70)"/><path class="cls-1" d="M269.37,197.92H96.15a9.89,9.89,0,0,1-10-9.83V79.84a9.89,9.89,0,0,1,10-9.84H269.37a9.89,9.89,0,0,1,9.95,9.84V188.09A9.89,9.89,0,0,1,269.37,197.92Z" transform="translate(-86.2 -70)"/><rect class="cls-2" x="8.89" y="8.48" width="175.35" height="109.65"/><rect class="cls-3" x="111.18" y="82.65" width="9.62" height="35.37"/><rect class="cls-4" x="111.18" y="82.65" width="9.62" height="11.08"/><path class="cls-5" d="M233,97.79H176.17v57.06h79.41V120.12A22.47,22.47,0,0,0,233,97.79Z" transform="translate(-86.2 -70)"/><path class="cls-5" d="M199,154.85H153.34V120.12a22.47,22.47,0,0,1,22.6-22.33h.46A22.47,22.47,0,0,1,199,120.12Z" transform="translate(-86.2 -70)"/><path class="cls-1" d="M195.09,150H157.24V121.18A18.63,18.63,0,0,1,176,102.67h.38a18.63,18.63,0,0,1,18.73,18.51Z" transform="translate(-86.2 -70)"/><rect class="cls-5" x="52.13" y="80.46" width="43.29" height="4.39"/><path class="cls-6" d="M231.47,133.73c1.36,0,2.71-2.16,2.71-5.26,0-6.2-4-11-10.87-11a11.19,11.19,0,0,0-11.23,11.13,10.47,10.47,0,0,0,10.84,10.58,11,11,0,0,0,6.2-2l1.52,2.61a14,14,0,0,1-7.72,2.41c-8,0-14.11-5.81-14.11-13.61a14.16,14.16,0,0,1,14.5-14.1c8.06,0,14.11,5.88,14.11,13.91,0,4.86-2.68,8-6.35,8-2,0-3.43-.75-3.86-2.51l-.07-.39a5.9,5.9,0,0,1-4.92,2.58,7.32,7.32,0,0,1-7.2-7.54c0-4.18,2.64-7.67,6.74-7.67a5.72,5.72,0,0,1,4.42,2v-1.67h4.07v10.94C230.25,133.3,230.74,133.73,231.47,133.73Zm-12-5.39c0,2.16,1.22,4,3.17,4s3.27-1.83,3.27-4-1.26-3.82-3.33-3.82C220.73,124.56,219.48,126.29,219.48,128.34Z" transform="translate(-86.2 -70)"/><path class="cls-7" d="M185.41,162.3c.33-8.87,6.46-16.4,9.68-19.76v-1.89h-29.7c-6.06,0-9.66,3-12.93,8.09a27.18,27.18,0,0,0-4.75,13.56c-.44,12,2.21,17.91-5.73,25.89s-11.47,12.54-9.12,25.56h37.7c-2.35-13,1.18-17.58,9.12-25.56S185,174.35,185.41,162.3Z" transform="translate(-86.2 -70)"/><path class="cls-8" d="M189.79,143.42H162c-.34.36-.69.77-1,1.2h27.78C189.1,144.19,189.45,143.78,189.79,143.42Z" transform="translate(-86.2 -70)"/><path class="cls-8" d="M185.41,149.16H157.63c-.25.39-.49.79-.73,1.2h27.78C184.92,150,185.16,149.55,185.41,149.16Z" transform="translate(-86.2 -70)"/><path class="cls-8" d="M182.5,154.89H154.72c-.15.4-.29.8-.42,1.21h27.78C182.21,155.69,182.35,155.29,182.5,154.89Z" transform="translate(-86.2 -70)"/><path class="cls-8" d="M181.07,160.63H153.29c0,.4-.09.8-.11,1.21H181C181,161.43,181,161,181.07,160.63Z" transform="translate(-86.2 -70)"/><path class="cls-8" d="M180.88,166.37H153.1c0,.41,0,.81,0,1.21H180.9C180.89,167.18,180.89,166.78,180.88,166.37Z" transform="translate(-86.2 -70)"/><path class="cls-8" d="M181,172.11H153.22c0,.41,0,.81,0,1.21H181C181,172.92,181,172.52,181,172.11Z" transform="translate(-86.2 -70)"/><path class="cls-8" d="M180.74,177.85H153c-.06.41-.13.81-.21,1.21h27.78C180.61,178.66,180.68,178.26,180.74,177.85Z" transform="translate(-86.2 -70)"/><path class="cls-8" d="M178.79,183.59H151a13.12,13.12,0,0,1-.75,1.2H178A13.12,13.12,0,0,0,178.79,183.59Z" transform="translate(-86.2 -70)"/><path class="cls-8" d="M174.07,189.33H146.29l-1.15,1.2h27.78Z" transform="translate(-86.2 -70)"/><path class="cls-8" d="M169.06,195.07H141.28q-.42.6-.81,1.2h27.78Q168.64,195.67,169.06,195.07Z" transform="translate(-86.2 -70)"/><path class="cls-8" d="M166.17,200.81H138.39c-.12.39-.23.79-.32,1.2h27.78C165.94,201.6,166.05,201.2,166.17,200.81Z" transform="translate(-86.2 -70)"/><path class="cls-8" d="M165.38,206.55H137.6c0,.39,0,.79,0,1.2h27.78C165.38,207.34,165.38,206.94,165.38,206.55Z" transform="translate(-86.2 -70)"/><path class="cls-9" d="M151.14,153.57c-.26-.39-1.81.87-2,1.21a10.89,10.89,0,0,0-1.15,1.49c-.25.54-.5,1-.77,1.57a7.28,7.28,0,0,0-.21.95,6.51,6.51,0,0,1-.84,1.25c-.09.11.07.16-.15.33.61.51.65,1,1,1.69a4.63,4.63,0,0,1,.76-.64c.25-.14,1.81-.74,2.07-.86a6.7,6.7,0,0,0,1.51-.85c.17-.13.85-.36.77-.61-.17-.55-1-.23-1.24-.19a5.06,5.06,0,0,1-1.69.35.81.81,0,0,1-.5-1.06,2.86,2.86,0,0,1,1-1.36c.27-.23,1.28-1.15,1.56-1.4.83-.71.45-1.22-.29-.75-.15.1-1.34,1.05-1.46,1.11a2.79,2.79,0,0,1,.31-.34C150.23,154.92,151.45,154,151.14,153.57Z" transform="translate(-86.2 -70)"/><path class="cls-9" d="M118.14,140.11l.19.32a16.74,16.74,0,0,0,2,2.76c.48.5,1.31.94,1.7,1.44a5.56,5.56,0,0,0,.52.56,48,48,0,0,0-2.55,7.12s-5-1.48-6.4-3.93A51.84,51.84,0,0,0,118.14,140.11Z" transform="translate(-86.2 -70)"/><path class="cls-10" d="M119,149.12a7.42,7.42,0,0,0-1.46-4.3,11.47,11.47,0,0,0-1-1.17,25.92,25.92,0,0,0,1.65-3.54l.19.32a16.74,16.74,0,0,0,2,2.76c.48.5,1.31.94,1.7,1.44a5.56,5.56,0,0,0,.52.56,48,48,0,0,0-2.55,7.12,19.18,19.18,0,0,1-2-.72A3.87,3.87,0,0,0,119,149.12Z" transform="translate(-86.2 -70)"/><path class="cls-1" d="M99.57,231.29s-.75,5,0,5.74,11.33,1.46,12.25.55.44-2.51-1.76-3.18-3.54-.12-5-.78-1-3-1-3Z" transform="translate(-86.2 -70)"/><path class="cls-1" d="M117.34,231.29s-.76,5,0,5.74,11.34,1.46,12.25.55.45-2.51-1.75-3.18c-2.36-.73-3.55-.12-5-.78s-1-3-1-3Z" transform="translate(-86.2 -70)"/><path class="cls-5" d="M97.9,203.09a151.81,151.81,0,0,1-2.56-28.54,13.38,13.38,0,0,1,5.26.15c3.35.89,6.71,1.73,10.06,2.57-1.68,5.6-4.42,23.47-4.5,27.13-.1,4.55-1.22,28.51-1.22,28.51l-6.1.14C98.33,229.4,98.12,204.3,97.9,203.09Z" transform="translate(-86.2 -70)"/><path class="cls-11" d="M105.3,176c1.77.52,3.58.87,5.38,1.21-1.64,5.5-4.35,23.22-4.51,27.08C105,202,100.46,194.13,98,188.11a33.54,33.54,0,0,1-2.6-12.68v-.05A24.91,24.91,0,0,1,105.3,176Z" transform="translate(-86.2 -70)"/><path class="cls-5" d="M101.2,174.5c2.26.66,6.36,1.56,9.47,2.51,2.36,5.24,8.91,19.18,10.16,24.75,1.73,7.7,1.74,30.72,1.74,30.72l-5.9.06s-4-26.09-4.76-27.9c-2.87-7.31-8.12-12.38-10.17-15.83-4.95-8.35-5.34-12.48-6.06-15.45C97.44,173.78,99.31,174,101.2,174.5Z" transform="translate(-86.2 -70)"/><path class="cls-3" d="M115.63,154.79c1.27-2.49.28-4.26,3-3.4,4.4,1.41,8.63,10.8,11.19,11.41,3.56.85,16.65-3.63,16.65-3.63l1.36,3.3s-17.28,7.46-20.11,6.76-10.26-8.7-12.07-11.4A2.92,2.92,0,0,1,115.63,154.79Z" transform="translate(-86.2 -70)"/><path class="cls-12" d="M115.63,154.79c1.27-2.49.28-4.26,3-3.4,4.4,1.41,8.63,10.8,11.19,11.41,3.56.85,16.65-3.63,16.65-3.63l1.36,3.3s-17.28,7.46-20.11,6.76-10.26-8.7-12.07-11.4A2.92,2.92,0,0,1,115.63,154.79Z" transform="translate(-86.2 -70)"/><path class="cls-3" d="M113.06,180.84a46.45,46.45,0,0,1-10.54-2c-3.83-1.25-7.12-3.37-7.66-5,0,0,6.06-15.59,10.24-20.91s9.08-5.42,9.08-5.42,3.17,2.91,6.17,3.53c0,0-2.71,11.57-4,16.14S113.06,180.84,113.06,180.84Z" transform="translate(-86.2 -70)"/><path class="cls-12" d="M111.81,163.28c0-2.08-.47-5.35.42-7.76.25.2.51.4.74.62a17.05,17.05,0,0,0,4.58,3.47,4.16,4.16,0,0,0,.71.21c-.69,2.8-1.41,5.64-1.9,7.42-1.29,4.58-3.3,13.6-3.3,13.6s-1.5-.08-3.68-.4C111.74,175.44,111.92,169,111.81,163.28Z" transform="translate(-86.2 -70)"/><path class="cls-9" d="M118.54,133.06s4.22-2.92,6.71-1.32,3.91,2.94,3.69,4.11-1.18,4.21-1.09,5.59.76,3.48.47,3.91-1.86-.22-2-.08-2.87,3-3.61,3-4.6-4.63-4.54-6.52S116.84,135.52,118.54,133.06Z" transform="translate(-86.2 -70)"/><path class="cls-1" d="M123.64,136.31c.35.88,1.65,2.41,5.09,2.7s5.77-6.55-.22-9.29-6.87-.57-8.18-.7a4.63,4.63,0,0,0-3.6.9c-2,1.54-3.34,3.87-2,7.71s3.41,4.48,3.41,4.48c.51-.65,1.12-1.87.7-2.58a4,4,0,0,1-.68-1,1.27,1.27,0,0,1,2.11-1.26c.59.44.27,1.72.43,2.33s.46.7.73.73c.51.07,1.52-1,1.35-2.86C122.69,136.28,123.3,135.43,123.64,136.31Z" transform="translate(-86.2 -70)"/><path class="cls-9" d="M140,181.26a3.28,3.28,0,0,1,.63.19,2.74,2.74,0,0,0,1.42.35,5.73,5.73,0,0,1,2.49.33c.35.21,2.44,1.61,1.51,2.33-.12.09-.48.18-.55.12l-.77-.67a5.32,5.32,0,0,1,.51.49c.07.1.21.24.23.35s-.3.58-.53.57-.3-.26-.43-.41h0c.11.18.42.4,0,.8s-.48,0-.69-.1a1.8,1.8,0,0,1-.21-.19c.07.08.33.35.38.43.14.27-.58.72-1,.51-.24-.14-.72-.74-.88-.76a3.64,3.64,0,0,1-2-1c-.18-.18-.54-.51-.71-.7a4.15,4.15,0,0,1-.64-.87A3.32,3.32,0,0,0,140,181.26Z" transform="translate(-86.2 -70)"/><path class="cls-3" d="M139,184.44l2.73-3.62s-9.9-9.27-13.6-13.84-7.28-13.47-10.39-14.33-6.48.52-5.12,5.07,10,11.29,11.71,13.41S137.24,183.21,139,184.44Z" transform="translate(-86.2 -70)"/></svg>