<svg id="Layer_1" data-name="Layer 1" xmlns="http://www.w3.org/2000/svg" viewBox="0 0 345 255.8"><defs><style>.cls-1{fill:#110239;}.cls-2{fill:#fefefe;}.cls-3{fill:#9c9eb9;}.cls-4{fill:#d0d1de;}.cls-5{fill:#fd425f;}.cls-6{fill:#01c7e2;}.cls-7{fill:#f88667;}.cls-8{fill:#00a7cc;}.cls-9{fill:#e45940;}.cls-10{fill:#e42244;}</style></defs><title>digital-marketing-1</title><rect class="cls-1" x="51.17" y="169.17" width="242.67" height="35.63"/><rect class="cls-1" x="28.14" width="288.72" height="193.54" rx="14.88"/><rect class="cls-2" x="41.43" y="12.82" width="262.13" height="165.89"/><path class="cls-1" d="M3,289.64v5.29c0,2.93,3.19,5.3,7.12,5.3H340.88c3.93,0,7.12-2.37,7.12-5.3v-5.29Z" transform="translate(-3 -44.43)"/><path class="cls-1" d="M175.5,248.82H33.9c-.48.51-22.74,20.44-29.54,35.24-2.91,6.33-1,9.66,4.4,9.66H342.24c5.41,0,7.31-3.33,4.4-9.66-6.8-14.8-29.06-34.73-29.54-35.24Z" transform="translate(-3 -44.43)"/><polygon class="cls-3" points="327.08 241.72 25.36 241.72 46.27 210.76 306.17 210.76 327.08 241.72"/><path class="cls-4" d="M326.41,280.72l-.65-1H305.62l-3.74-7.51h18.81l-.66-1H301.39l-3.75-7.51H315l-.65-1H297.16l-3.8-7.6h-1.73l3.73,7.6H273.81l-3-7.6H269l3,7.6H250.45l-2.25-7.6h-1.74l2.19,7.6H227.1l-1.48-7.6h-1.74l1.42,7.6H203.74l-.7-7.6H201.3l.64,7.6H181.48v-7.6h-1.91v7.6H158.36l.65-7.6h-1.74l-.71,7.6H135l1.42-7.6h-1.74l-1.48,7.6H111.65l2.19-7.6H112.1l-2.25,7.6H88.3l3-7.6H89.52l-3,7.6H65l3.73-7.6H66.94l-3.79,7.6h-19l-.65,1H62.66l-3.75,7.51H38.41l-.66,1H58.43l-3.75,7.51h-22l-.65,1H54.2l-2.72,5.43h2l2.67-5.43H79.37l-2.16,5.43h2l2.12-5.43h23.24l-1.61,5.43h2l1.57-5.43h23.23l-1.05,5.43h2l1-5.43H154.9l-.51,5.43h2l.47-5.43h22.73v5.43h1.91v-5.43h22l.46,5.43h2l-.5-5.43h23.23l1,5.43h2l-1.06-5.43h23.24l1.56,5.43h2l-1.61-5.43H279l2.12,5.43h2l-2.16-5.43h23.24l2.67,5.43h2l-2.71-5.43Zm-238.49-17h21.65l-2.23,7.51H85Zm-23.45,0H86.11l-3,7.51H60.78Zm15.29,16H56.61l3.69-7.51H82.74Zm25.07,0H81.69l2.93-7.51h22.44Zm25.08,0H106.77l2.16-7.51h22.44Zm1.65-8.48H109.21l2.16-7.51H133ZM155,279.75H131.84l1.4-7.51h22.44Zm.78-8.48H133.43l1.4-7.51h21.64Zm23.8,8.48H156.92l.64-7.51h22Zm0-8.48H157.64l.64-7.51h21.29Zm1.91-7.51H202l.64,7.51H181.48Zm0,16v-7.51h21.27l.64,7.51Zm114.36-16,3.69,7.51H277.18l-3-7.51Zm-23.46,0,2.93,7.51H253l-2.22-7.51Zm-68.55,0h21.65l1.4,7.51H204.53Zm1.49,16-.7-7.51h22.44l1.4,7.51Zm22-16h21.65l2.17,7.51H228.75Zm3.11,16-1.46-7.51h22.44l2.17,7.51Zm25.08,0-2.22-7.51h22.44l2.93,7.51Zm25.08,0-3-7.51H300l3.69,7.51Z" transform="translate(-3 -44.43)"/><path class="cls-1" d="M175.5,293.72H160.85a3,3,0,0,0,.73,2,1.6,1.6,0,0,0,1.11.41h25.62a1.6,1.6,0,0,0,1.11-.41,3,3,0,0,0,.73-2Z" transform="translate(-3 -44.43)"/><path class="cls-4" d="M278.89,208H72.11V81.86H278.89ZM76,204.18H275V85.72H76Z" transform="translate(-3 -44.43)"/><rect class="cls-5" x="226.58" y="69.19" width="19.23" height="82.31"/><rect class="cls-4" x="190.95" y="113.64" width="19.23" height="37.85"/><rect class="cls-6" x="155.32" y="104.49" width="19.23" height="47.01"/><rect class="cls-4" x="119.69" y="77.87" width="19.23" height="73.62"/><rect class="cls-4" x="84.06" y="94.03" width="19.23" height="57.46"/><polygon class="cls-1" points="200.99 98.95 164.47 91.7 129.28 58.07 94.31 88.96 93.04 87.52 129.33 55.45 165.4 89.92 200.14 96.82 235.41 47.16 236.99 48.28 200.99 98.95"/><path class="cls-5" d="M101,132.67a4.35,4.35,0,1,1-4.35-4.34A4.34,4.34,0,0,1,101,132.67Z" transform="translate(-3 -44.43)"/><circle class="cls-5" cx="129.06" cy="56.76" r="4.34"/><path class="cls-5" d="M172.28,135.2a4.34,4.34,0,1,1-4.34-4.34A4.34,4.34,0,0,1,172.28,135.2Z" transform="translate(-3 -44.43)"/><path class="cls-5" d="M207.91,141.35a4.34,4.34,0,1,1-4.34-4.34A4.34,4.34,0,0,1,207.91,141.35Z" transform="translate(-3 -44.43)"/><path class="cls-5" d="M243.54,93a4.34,4.34,0,1,1-4.34-4.35A4.34,4.34,0,0,1,243.54,93Z" transform="translate(-3 -44.43)"/><path class="cls-7" d="M131.47,125.22a8,8,0,0,0,3.71-1.93,4.9,4.9,0,0,1,1.49-1.27,9.91,9.91,0,0,0,1.84-1.29,4,4,0,0,1,1.94-1.08c.93-.09.43,1,0,1.67s-3,1.73-2.89,2.65,3.12-.5,3.72-.79c1.4-.68,1.49-1.85,2.33-3,.48-.67.91-.83,1.21.08.22.67-.25,1.37-.58,1.92a8.47,8.47,0,0,1-2.89,2.94,9.87,9.87,0,0,0,3-2.46c.47-.56,2.05-3.33,3-2.67,1.92,1.33-3.36,6.21-4.62,6.59a11.37,11.37,0,0,0,3.16-2.28c.57-.51,1.88-1.79,2.1-.42.33,2-3.61,3.48-5.25,4.44a13.32,13.32,0,0,0,3.39-1.5c1.47-.74,1.5.6.13,1.62a17.79,17.79,0,0,1-2.15,1.22c-3,1.45-4.84,1.47-8,1.13-1.15-.12-3.37.86-4,.13C130.73,129.51,131.41,126.85,131.47,125.22Z" transform="translate(-3 -44.43)"/><path class="cls-5" d="M132.3,124.8l2.33,7.71s-27.28,7-33.92,8.08S79.5,125,79.5,125s-5-12.07-1.26-11.91c2.87.12,23.76,16.06,24.91,16.68S132.3,124.8,132.3,124.8Z" transform="translate(-3 -44.43)"/><path class="cls-7" d="M60.84,262.52s-.2,5.22.68,7.67,7.19,6.2,7.19,6.2-5.7,1.11-7.89-.59-7.38-10.53-7-11.69,1.91-4.7,1.91-4.7Z" transform="translate(-3 -44.43)"/><path class="cls-7" d="M94.79,259.33s-.2,5.21.68,7.66,7.18,6.21,7.18,6.21-5.7,1.1-7.88-.59-7.38-10.54-7-11.69,1.91-4.71,1.91-4.71Z" transform="translate(-3 -44.43)"/><path class="cls-1" d="M55.08,262.52s-4.78,1.6-3.59,5.78a36.24,36.24,0,0,1,1,9.56h1.39s.3-6,1.2-5.78S58,277.86,60,277.86H71.21s1.2-1.19,0-1.89-8.82-.4-9.69-2.09S55.08,262.52,55.08,262.52Z" transform="translate(-3 -44.43)"/><path class="cls-1" d="M89.3,259.19s-4.78,1.59-3.59,5.78a36.24,36.24,0,0,1,1,9.56H88.1s.3-6,1.2-5.78,2.88,5.78,4.88,5.78h11.25s1.2-1.2,0-1.89-8.82-.4-9.69-2.09S89.3,259.19,89.3,259.19Z" transform="translate(-3 -44.43)"/><path class="cls-6" d="M86.13,155.23s-13.39,4.7-23.1,0c0,0-5.88,4.93-6.81,15a55.23,55.23,0,0,0,.4,11.33c.67,5.6,2.3,20.29,1.29,29.35-1.5,13.27-5.62,51.77-5.62,51.77l9.23,1.43S70,217.64,71,211.91s4.23-29,4.23-29,5.75,18,7.23,26.74c.23,1.34,4.32,50.68,4.32,50.68l8.95-.05s-.5-54.81-.5-51.92C95.24,209.49,92.82,171.36,86.13,155.23Z" transform="translate(-3 -44.43)"/><path class="cls-8" d="M81.48,190.11c-2-6.1-3.24-9.16-7.37-14.62.42,2.5.81,5,1.1,7.51l0-.13s4.92,15.42,6.83,24.64C81.85,197.57,83,194.59,81.48,190.11Z" transform="translate(-3 -44.43)"/><path class="cls-9" d="M76.65,100.49c-.92-.19-5.36-9.55-7.26-11.37-.91,6.39-4.78,21.56-4.78,21.56,4.69,5,14,1.95,14,1.95C77.12,109.3,76.39,102.67,76.65,100.49Z" transform="translate(-3 -44.43)"/><path class="cls-7" d="M74.79,78.2s9.1,2,10.85,4.71,1.74,9.56,2.7,11.38c.59,1.11,1.11,2,1.4,2.65s-.39.9-1.18,1.18a1.36,1.36,0,0,0-.85.88c-.54,1.67-2,5.94-3.55,6.53-1.88.74-11.15.45-13.94-7.62S69,76.47,74.79,78.2Z" transform="translate(-3 -44.43)"/><path class="cls-5" d="M66,107.51a113.79,113.79,0,0,0,12.5,4.75s7.35,14.51,7.84,18.56,4.28,31.65,4.28,31.65S76.08,171.72,55,164.39c0,0,5.06-21.75,3.91-30.33S58.74,113.88,66,107.51Z" transform="translate(-3 -44.43)"/><path class="cls-10" d="M63.45,166.54c-.24-9.24,1.87-17.63,2.06-26.88.15-7.46-2.93-11.71-6.68-16.29a43.29,43.29,0,0,0,.07,10.69c1.15,8.58-3.91,30.33-3.91,30.33A51.53,51.53,0,0,0,63.45,166.54Z" transform="translate(-3 -44.43)"/><path class="cls-1" d="M55,133.07c5.13-4.26,3-8.53,8.19-12.58l1.13-.87c.26-2.23-5.1-1.08-3.62-3.32,2.07-3.15,10.77-7.9,10.58-11-.13-2.09-.18-.81.21-2.88.45-2.36,1.44-2.82-.41-4.55-1.3-1.21-2.39-2.52-1.36-4.35.84-1.49,2.19-1.93,3.35-.53.31.37,1.84,3.45,2.23,1.71.11-.48-.54-1.42-.6-2a2.17,2.17,0,0,1,.62-2c.92-1,2.27-1.49,3.22-2.47,1.19-1.23,1.34-2.85,3.06-3.52a4.42,4.42,0,0,1,2.74-.12c.4.11,2.13,1.27,2.41,1.16,2.94-1.15,1.62-5.71-.39-7.12a22.14,22.14,0,0,0-12.52-4.21c-5.33.11-10.2,4.23-13.29,8.22-2.25,2.9-2.09,6-3.71,9.09-1.48,2.84-4.66,4.26-6.57,6.82-1.8,2.4-1.81,5.53-1.11,8.35.55,2.21,1.17,4.22.8,6.49-.45,2.82-2.71,4.89-3.48,7.61a12.07,12.07,0,0,0-.13,7.74C47.69,133.92,50.7,135.3,55,133.07Z" transform="translate(-3 -44.43)"/><path class="cls-7" d="M47.09,179a7.58,7.58,0,0,0,1,3.87,4.68,4.68,0,0,1,.85,1.66,10.43,10.43,0,0,0,.8,2,3.8,3.8,0,0,1,.59,2c-.13.88-1,.18-1.56-.36s-1-3.17-1.83-3.27-.22,3-.08,3.63c.33,1.45,1.4,1.79,2.28,2.81.51.6.57,1-.34,1.11-.68.06-1.22-.52-1.66-1a8,8,0,0,1-2.1-3.32,9.35,9.35,0,0,0,1.63,3.3c.43.56,2.65,2.63,1.83,3.38-1.65,1.49-5-4.48-5.12-5.73a11,11,0,0,0,1.44,3.43c.35.64,1.25,2.13-.07,2-1.94-.13-2.45-4.1-3-5.84a12.86,12.86,0,0,0,.66,3.47c.36,1.53-.88,1.27-1.53-.23a17.44,17.44,0,0,1-.67-2.26c-.69-3.1-.31-4.82.7-7.71.36-1-.06-3.31.76-3.77C43.26,177.41,45.58,178.63,47.09,179Z" transform="translate(-3 -44.43)"/><path class="cls-5" d="M48.18,179.13l-8.4.45s-.1-24.82,2.13-33.25S60,115.2,63.67,113.48c4.35-2.07,17.29,3.46,7.81,10.83S53,149.22,52.64,149.93,48.18,179.13,48.18,179.13Z" transform="translate(-3 -44.43)"/></svg>