<svg height="512pt" viewBox="0 0 512 512" width="512pt" xmlns="http://www.w3.org/2000/svg" xmlns:xlink="http://www.w3.org/1999/xlink"><linearGradient id="a" gradientUnits="userSpaceOnUse" x1="168.2550181794" x2="513.9494349552" y1="168.2550181794" y2="513.9494349552"><stop offset="0" stop-color="#3b395f"/><stop offset=".0633" stop-color="#37355a"/><stop offset=".4033" stop-color="#232543"/><stop offset=".7232" stop-color="#171b35"/><stop offset="1" stop-color="#131830"/></linearGradient><linearGradient id="b"><stop offset="0" stop-color="#131830" stop-opacity="0"/><stop offset="1" stop-color="#131830"/></linearGradient><linearGradient id="c" gradientUnits="userSpaceOnUse" x1="256.00011" x2="256.00011" xlink:href="#b" y1="458.3110737932" y2="529.3574290268"/><linearGradient id="d" gradientUnits="userSpaceOnUse" x1="242.3471723688" x2="136.0370529632" xlink:href="#b" y1="466.200796399" y2="359.8907773856"/><linearGradient id="e" gradientUnits="userSpaceOnUse" x1="356.2379067964" x2="252.473833975" xlink:href="#b" y1="454.1093590466" y2="350.3452862252"/><linearGradient id="f" gradientUnits="userSpaceOnUse" x1="502.9872090684" x2="416.4744315028" xlink:href="#b" y1="443.092519803" y2="356.5797422374"/><linearGradient id="g"><stop offset="0" stop-color="#fffcf8"/><stop offset=".1875" stop-color="#faf8f6"/><stop offset=".4041" stop-color="#eceef2"/><stop offset=".6353" stop-color="#d5dcea"/><stop offset=".875" stop-color="#b5c4df"/><stop offset="1" stop-color="#a1b5d8"/></linearGradient><linearGradient id="h" gradientTransform="matrix(0 -1.003922 1.003922 0 3669.054645 -2419.638212)" gradientUnits="userSpaceOnUse" x1="-2665.1865" x2="-2665.1865" xlink:href="#g" y1="-3590.9363" y2="-3581.6375"/><linearGradient id="i" gradientUnits="userSpaceOnUse" x1="256.00011" x2="256.00011" xlink:href="#g" y1="438.6286810222" y2="447.9639509158"/><linearGradient id="j" gradientUnits="userSpaceOnUse" x1="111.1725152204" x2="48.1800238396" xlink:href="#b" y1="110.6990656052" y2="47.7065742244"/><linearGradient id="k"><stop offset="0" stop-color="#fffcf8"/><stop offset=".2239" stop-color="#fbf9f7"/><stop offset=".4254" stop-color="#f0f1f3"/><stop offset=".6183" stop-color="#dee3ed"/><stop offset=".8059" stop-color="#c4d0e4"/><stop offset=".9882" stop-color="#a3b7d9"/><stop offset="1" stop-color="#a1b5d8"/></linearGradient><radialGradient id="l" cx="53.5820277294" cy="45.4378108966" gradientUnits="userSpaceOnUse" r="38.4344510246" xlink:href="#k"/><linearGradient id="m" gradientUnits="userSpaceOnUse" x1="477.7562397956" x2="423.220385774" xlink:href="#b" y1="476.86295" y2="422.3270959784"/><radialGradient id="n" cx="427.3760205008" cy="418.8118630954" gradientUnits="userSpaceOnUse" r="38.4344510246" xlink:href="#k"/><linearGradient id="o"><stop offset="0" stop-color="#ffa700"/><stop offset=".3227" stop-color="#fca300"/><stop offset=".6649" stop-color="#f39600"/><stop offset="1" stop-color="#e58200"/></linearGradient><radialGradient id="p" cx="142.1947089424" cy="366.7272854212" gradientUnits="userSpaceOnUse" r="50.1706003812" xlink:href="#o"/><linearGradient id="q"><stop offset="0" stop-color="#e58200" stop-opacity="0"/><stop offset=".0396" stop-color="#e27f04" stop-opacity=".039216"/><stop offset=".4671" stop-color="#c15d2f" stop-opacity=".466667"/><stop offset=".8016" stop-color="#ad4949" stop-opacity=".8"/><stop offset="1" stop-color="#a64153"/></linearGradient><linearGradient id="r" gradientUnits="userSpaceOnUse" x1="144.5337468102" x2="144.5337468102" xlink:href="#q" y1="360.7771401194" y2="446.8544163214"/><linearGradient id="s" gradientUnits="userSpaceOnUse" x1="144.5337468102" x2="144.5337468102" xlink:href="#q" y1="380.0441099668" y2="293.0594890612"/><linearGradient id="t" gradientUnits="userSpaceOnUse" x1="144.5337468102" x2="144.5337468102" xlink:href="#q" y1="369.8439612702" y2="397.6629410668"/><linearGradient id="u" gradientUnits="userSpaceOnUse" x1="144.5337468102" x2="144.5337468102" xlink:href="#q" y1="378.910782421" y2="331.539216968"/><linearGradient id="v"><stop offset="0" stop-color="#ffc738"/><stop offset=".2837" stop-color="#ffc534"/><stop offset=".5391" stop-color="#ffbf29"/><stop offset=".7827" stop-color="#ffb417"/><stop offset="1" stop-color="#ffa700"/></linearGradient><radialGradient id="w" cx="126.611128913" cy="355.3938091788" gradientUnits="userSpaceOnUse" r="67.4347458386" xlink:href="#v"/><linearGradient id="x"><stop offset="0" stop-color="#fffcf8"/><stop offset=".9485" stop-color="#fffcf8" stop-opacity=".05098"/><stop offset="1" stop-color="#fffcf8" stop-opacity="0"/></linearGradient><radialGradient id="y" cx="140.708703598" cy="368.3875716248" gradientUnits="userSpaceOnUse" r="42.181288713" xlink:href="#x"/><radialGradient id="z" cx="108.0785" cy="362.4596" gradientTransform="matrix(.920094 0 0 1.003922 44.368113 0)" gradientUnits="userSpaceOnUse" r="54.7916" xlink:href="#o"/><radialGradient id="A" cx="130.92648763" cy="356.2996479994" gradientUnits="userSpaceOnUse" r="51.3745036436" xlink:href="#v"/><linearGradient id="B"><stop offset="0" stop-color="#ffa700" stop-opacity="0"/><stop offset=".0206" stop-color="#fea600" stop-opacity=".019608"/><stop offset=".6348" stop-color="#ec8c00" stop-opacity=".635294"/><stop offset="1" stop-color="#e58200"/></linearGradient><linearGradient id="C" gradientUnits="userSpaceOnUse" x1="158.9165357354" x2="126.2365656148" xlink:href="#B" y1="377.8321686242" y2="370.2761496912"/><linearGradient id="D" gradientUnits="userSpaceOnUse" x1="138.111055423" x2="149.9456895278" xlink:href="#o" y1="368.3875716248" y2="368.3875716248"/><radialGradient id="E" cx="256.5509620014" cy="355.2525573534" gradientUnits="userSpaceOnUse" r="61.7237347572" xlink:href="#o"/><linearGradient id="F" gradientUnits="userSpaceOnUse" x1="259.4286040222" x2="259.4286040222" xlink:href="#q" y1="347.932259306" y2="453.8310718682"/><linearGradient id="G" gradientUnits="userSpaceOnUse" x1="259.4286040222" x2="259.4286040222" xlink:href="#q" y1="371.6359620402" y2="264.620788214"/><linearGradient id="H" gradientUnits="userSpaceOnUse" x1="259.4286040222" x2="259.4286040222" xlink:href="#q" y1="359.0869370402" y2="393.312043511"/><linearGradient id="I" gradientUnits="userSpaceOnUse" x1="259.4286040222" x2="259.4286040222" xlink:href="#q" y1="370.2416147744" y2="311.9614328694"/><radialGradient id="J" cx="237.3787623908" cy="341.3091850876" gradientUnits="userSpaceOnUse" r="82.9634113346" xlink:href="#v"/><radialGradient id="K" cx="254.7227196472" cy="357.2952374468" gradientUnits="userSpaceOnUse" r="51.8946356318" xlink:href="#x"/><radialGradient id="L" cx="232.7704" cy="350.3768" gradientTransform="matrix(.920094 0 0 1.003922 44.368113 0)" gradientUnits="userSpaceOnUse" r="67.4088" xlink:href="#o"/><radialGradient id="M" cx="242.6879034956" cy="342.4236388998" gradientUnits="userSpaceOnUse" r="63.2048208838" xlink:href="#v"/><linearGradient id="N" gradientUnits="userSpaceOnUse" x1="277.1233316254" x2="236.918062585" xlink:href="#B" y1="368.9146306748" y2="359.6186141314"/><linearGradient id="O" gradientUnits="userSpaceOnUse" x1="251.5269347446" x2="266.0868155106" xlink:href="#o" y1="357.2952374468" y2="357.2952374468"/><radialGradient id="P" cx="398.556532039" cy="339.7048173394" gradientUnits="userSpaceOnUse" r="77.3776897188" xlink:href="#o"/><linearGradient id="Q" gradientUnits="userSpaceOnUse" x1="402.1640253538" x2="402.1640253538" xlink:href="#q" y1="330.5280667296" y2="463.2842022046"/><linearGradient id="R" gradientUnits="userSpaceOnUse" x1="402.1640253538" x2="402.1640253538" xlink:href="#q" y1="360.243354792" y2="226.087752049"/><linearGradient id="S" gradientUnits="userSpaceOnUse" x1="402.1640253538" x2="402.1640253538" xlink:href="#q" y1="344.5116962676" y2="387.4167123504"/><linearGradient id="T" gradientUnits="userSpaceOnUse" x1="402.1640253538" x2="402.1640253538" xlink:href="#q" y1="358.4953258056" y2="285.434601079"/><radialGradient id="U" cx="374.522137398" cy="322.225330613" gradientUnits="userSpaceOnUse" r="104.0039097872" xlink:href="#v"/><radialGradient id="V" cx="396.2646785052" cy="342.2655211848" gradientUnits="userSpaceOnUse" r="65.0557518752" xlink:href="#x"/><radialGradient id="W" cx="387.6564" cy="334.0053" gradientTransform="matrix(.920094 0 0 1.003922 44.368113 0)" gradientUnits="userSpaceOnUse" r="84.5045" xlink:href="#o"/><radialGradient id="X" cx="381.177638297" cy="323.6223884682" gradientUnits="userSpaceOnUse" r="79.2343430656" xlink:href="#v"/><linearGradient id="Y" gradientUnits="userSpaceOnUse" x1="424.3463846892" x2="373.9444806792" xlink:href="#B" y1="356.8319274438" y2="345.1783004756"/><linearGradient id="Z" gradientUnits="userSpaceOnUse" x1="392.258427372" x2="410.5108336462" xlink:href="#o" y1="342.2655211848" y2="342.2655211848"/><linearGradient id="aa" gradientUnits="userSpaceOnUse" x1="299.8406809946" x2="339.8305083738" y1="205.465186325" y2="245.4551140964"><stop offset="0" stop-color="#ff4974"/><stop offset=".3262" stop-color="#fe4672"/><stop offset=".5324" stop-color="#fb3e6c"/><stop offset=".7054" stop-color="#f52f60"/><stop offset=".8591" stop-color="#ee1a51"/><stop offset="1" stop-color="#e4003d"/></linearGradient><path d="m450.105469 512h-388.210938c-34.183593 0-61.894531-27.710938-61.894531-61.894531v-388.210938c0-34.183593 27.710938-61.894531 61.894531-61.894531h388.210938c34.183593 0 61.894531 27.710938 61.894531 61.894531v388.210938c0 34.183593-27.710938 61.894531-61.894531 61.894531zm0 0" fill="url(#a)"/><path d="m0 421.261719v28.84375c0 34.183593 27.710938 61.894531 61.894531 61.894531h388.210938c34.183593 0 61.894531-27.710938 61.894531-61.894531v-28.84375zm0 0" fill="url(#c)"/><path d="m356.171875 512h-136.050781l-107.824219-107.820312c-9.777344-8.824219-15.929687-21.585938-15.929687-35.789063 0-26.605469 21.5625-48.167969 48.167968-48.167969 14.203125 0 26.964844 6.140625 35.789063 15.929688zm0 0" fill="url(#d)"/><path d="m486.199219 500.382812c-6.265625 4.519532-13.402344 7.882813-21.121094 9.789063-4.789063 1.195313-9.808594 1.828125-14.96875 1.828125h-119.660156l-110.609375-110.613281c-12.078125-10.851563-19.679688-26.582031-19.679688-44.089844 0-.433594 0-.863281.023438-1.285156.679687-32.136719 26.945312-57.976563 59.25-57.976563 17.507812 0 33.238281 7.597656 44.082031 19.675782l24.355469 24.355468zm0 0" fill="url(#e)"/><path d="m512 347.117188v102.992187c0 20.710937-10.179688 39.050781-25.800781 50.273437-6.265625 4.519532-13.402344 7.882813-21.121094 9.789063l-113.785156-113.785156c-14.40625-13.550781-23.421875-32.777344-23.421875-54.121094v-.199219c.109375-40.941406 33.328125-74.089844 74.289062-74.089844 21.34375 0 40.570313 9.003907 54.121094 23.421876zm0 0" fill="url(#f)"/><path d="m73.371094 68.703125v374.59375c0 2.578125-2.089844 4.667969-4.667969 4.667969s-4.664063-2.089844-4.664063-4.667969v-374.59375c0-2.578125 2.089844-4.664063 4.664063-4.664063 2.578125-.003906 4.667969 2.085938 4.667969 4.664063zm0 0" fill="url(#h)"/><path d="m443.296875 447.964844h-374.59375c-2.578125 0-4.667969-2.089844-4.667969-4.667969s2.089844-4.667969 4.667969-4.667969h374.59375c2.578125 0 4.664063 2.089844 4.664063 4.667969.003906 2.578125-2.085938 4.667969-4.664063 4.667969zm0 0" fill="url(#i)"/><path d="m82.125 57.464844c-3.128906-3.371094-7.585938-5.492188-12.546875-5.492188-9.460937 0-17.132813 7.671875-17.132813 17.132813 0 4.960937 2.121094 9.414062 5.492188 12.542969l45.207031 45.207031c3.125 3.367187 7.582031 5.488281 12.542969 5.488281 9.460938 0 17.132812-7.667969 17.132812-17.128906 0-4.964844-2.121093-9.417969-5.492187-12.546875zm0 0" fill="url(#j)"/><path d="m86.710938 69.105469c0 9.460937-7.671876 17.132812-17.132813 17.132812s-17.132813-7.671875-17.132813-17.132812c0-9.460938 7.671876-17.132813 17.132813-17.132813s17.132813 7.671875 17.132813 17.132813zm0 0" fill="url(#l)"/><path d="m455.917969 430.839844c-3.128907-3.371094-7.585938-5.492188-12.546875-5.492188-9.460938 0-17.132813 7.667969-17.132813 17.132813 0 4.960937 2.121094 9.414062 5.492188 12.542969l35.761719 35.761718c3.128906 3.371094 7.585937 5.492188 12.546874 5.492188 9.460938 0 17.132813-7.667969 17.132813-17.132813 0-4.960937-2.125-9.414062-5.492187-12.542969zm0 0" fill="url(#m)"/><path d="m460.503906 442.480469c0 9.460937-7.667968 17.132812-17.132812 17.132812-9.460938 0-17.128906-7.671875-17.128906-17.132812 0-9.460938 7.667968-17.132813 17.128906-17.132813 9.464844 0 17.132812 7.671875 17.132812 17.132813zm0 0" fill="url(#n)"/><path d="m192.703125 368.386719c0 26.605469-21.566406 48.171875-48.167969 48.171875-26.605468 0-48.171875-21.566406-48.171875-48.171875 0-26.601563 21.566407-48.167969 48.171875-48.167969 26.601563 0 48.167969 21.566406 48.167969 48.167969zm0 0" fill="url(#p)"/><path d="m96.363281 368.386719c0 17.191406 9.007813 32.28125 22.5625 40.800781h51.214844c13.554687-8.523438 22.5625-23.609375 22.5625-40.800781 0-17.191407-9.007813-32.277344-22.5625-40.800781h-51.214844c-13.554687 8.523437-22.5625 23.609374-22.5625 40.800781zm0 0" fill="url(#r)"/><path d="m96.363281 368.386719c0 12.265625 4.585938 23.457031 12.132813 31.960937h72.070312c7.550782-8.503906 12.136719-19.695312 12.136719-31.960937s-4.585937-23.457031-12.136719-31.960938h-72.070312c-7.546875 8.503907-12.132813 19.695313-12.132813 31.960938zm0 0" fill="url(#s)"/><path d="m96.363281 368.386719c0 7.167969 1.566407 13.96875 4.375 20.082031h87.589844c2.804687-6.113281 4.375-12.914062 4.375-20.082031s-1.570313-13.96875-4.375-20.082031h-87.589844c-2.808593 6.113281-4.375 12.914062-4.375 20.082031zm0 0" fill="url(#t)"/><path d="m96.363281 368.386719c0 4.148437.527344 8.175781 1.511719 12.015625h93.316406c.984375-3.839844 1.511719-7.867188 1.511719-12.015625 0-4.148438-.527344-8.175781-1.511719-12.015625h-93.316406c-.984375 3.839844-1.511719 7.867187-1.511719 12.015625zm0 0" fill="url(#u)"/><path d="m140.707031 320.367188c-24.8125 1.949218-44.34375 22.703124-44.34375 48.019531 0 25.316406 19.53125 46.070312 44.34375 48.019531 24.816407-1.949219 44.347657-22.703125 44.347657-48.019531 0-25.316407-19.53125-46.070313-44.347657-48.019531zm0 0" fill="url(#w)"/><path d="m143.203125 324.777344c-1.65625-.226563-3.332031-.226563-4.988281 0-21.476563 2.921875-38.027344 21.332031-38.027344 43.609375 0 22.277343 16.550781 40.6875 38.027344 43.609375 1.65625.226562 3.335937.226562 4.988281 0 21.476563-2.921875 38.027344-21.332032 38.027344-43.609375 0-22.277344-16.550781-40.6875-38.027344-43.609375zm0 0" fill="url(#y)"/><path d="m172.726562 368.386719c0-19.410157-14.421874-35.144531-32.214843-35.144531-17.789063 0-32.210938 15.734374-32.210938 35.144531 0 19.410156 14.421875 35.144531 32.210938 35.144531 17.792969 0 32.214843-15.734375 32.214843-35.144531zm0 0" fill="url(#z)"/><path d="m149.355469 334.585938c-4.007813-1.246094-8.292969-1.246094-12.304688 0-13.488281 4.195312-23.367187 17.738281-23.367187 33.800781 0 16.378906 10.269531 30.140625 24.164062 34.039062 3.5.980469 7.214844.980469 10.710938 0 13.894531-3.898437 24.164062-17.660156 24.164062-34.039062.003906-16.0625-9.875-29.609375-23.367187-33.800781zm0 0" fill="url(#A)"/><path d="m172.355469 373.710938-21.320313-21.324219c-.390625-.675781-1.191406-1.230469-2.414062-1.671875-1.257813-.449219-2.59375-.757813-4.011719-.925782l-1.871094-1.667968c-.035156-.265625-.191406-.503906-.480469-.714844-.328124-.246094-.683593-.367188-1.066406-.367188-.417968 0-.773437.125-1.070312.367188-.292969.242188-.441406.519531-.441406.832031v1.511719c-2.816407.3125-5.171876 1.253906-7.0625 2.816406-1.894532 1.5625-2.84375 3.855469-2.84375 6.875 0 1.074219.121093 2.054688.367187 2.9375.242187.886719.640625 1.65625 1.199219 2.316406.554687.660157 1.085937 1.222657 1.589844 1.691407.027343.023437.054687.046875.082031.074219l6.667969 6.679687v8.722656c-1.542969-.105469-2.898438-.503906-4.070313-1.199219-1.171875-.691406-2.09375-1.339843-2.765625-1.949218-.671875-.605469-1.210938-.910156-1.625-.910156-.621094 0-1.175781.332031-1.660156.988281-.480469.660156-.722656 1.320312-.722656 1.976562 0 1.082031.625 2.144531 1.875 3.191407l18.320312 18.324218c12.132812-3.621094 21.40625-14.78125 23.324219-28.574218zm0 0" fill="url(#C)"/><path d="m128.835938 380.769531c0-.65625.242187-1.316406.722656-1.976562.484375-.65625 1.039062-.988281 1.660156-.988281.410156 0 .953125.304687 1.625.910156.671875.609375 1.59375 1.257812 2.765625 1.949218 1.171875.695313 2.527344 1.09375 4.070313 1.199219v-12.226562c-1.042969-.382813-1.84375-.683594-2.398438-.910157-.554688-.226562-1.296875-.554687-2.214844-.988281-.921875-.433593-1.632812-.882812-2.136718-1.351562-.503907-.46875-1.035157-1.035157-1.589844-1.691407-.558594-.660156-.957032-1.429687-1.199219-2.316406-.246094-.882812-.367187-1.863281-.367187-2.9375 0-3.019531.949218-5.3125 2.84375-6.875 1.890624-1.566406 4.246093-2.503906 7.0625-2.816406v-1.511719c0-.3125.148437-.589843.441406-.835937.296875-.242188.652344-.363282 1.070312-.363282.382813 0 .738282.121094 1.066406.363282.332032.246094.496094.523437.496094.835937v1.40625c2.121094.070313 4.074219.425781 5.867188 1.070313 1.789062.644531 2.683594 1.539062 2.683594 2.683594 0 .625-.210938 1.277343-.632813 1.953124-.421875.679688-.980469 1.015626-1.683594 1.015626-.273437 0-1.039062-.292969-2.28125-.882813-1.246093-.59375-2.5625-.941406-3.953125-1.042969v10.5625c1.382813.519532 2.53125 1.015625 3.445313 1.484375.917969.46875 1.886719 1.117188 2.90625 1.949219s1.789062 1.882812 2.304687 3.148438c.519532 1.265624.78125 2.75.78125 4.449218 0 3.105469-.847656 5.570313-2.542968 7.402344-1.695313 1.832031-3.992188 2.957031-6.894532 3.375v1.742188c0 .304687-.164062.578124-.496094.816406-.328124.242187-.6875.359375-1.066406.359375-.417968 0-.773437-.117188-1.070312-.355469s-.441406-.511719-.441406-.820312v-1.585938c-3.023438-.035156-5.589844-.726562-7.691407-2.074219-2.101562-1.347656-3.152343-2.722656-3.152343-4.125zm6.097656-21.847656c0 1.351563.421875 2.382813 1.265625 3.09375s2.105469 1.378906 3.792969 2.003906v-9.476562c-3.371094.414062-5.058594 1.875-5.058594 4.378906zm7.507812 22.835937c3.058594-.554687 4.589844-2.269531 4.589844-5.148437 0-1.527344-.402344-2.722656-1.203125-3.589844-.796875-.867187-1.925781-1.613281-3.386719-2.238281zm0 0" fill="url(#D)"/><path d="m318.691406 357.292969c0 32.730469-26.535156 59.265625-59.261718 59.265625-32.730469 0-59.265626-26.535156-59.265626-59.265625 0-32.726563 26.535157-59.261719 59.265626-59.261719 32.726562 0 59.261718 26.535156 59.261718 59.261719zm0 0" fill="url(#E)"/><path d="m200.164062 357.292969c0 21.152343 11.085938 39.714843 27.757813 50.199219h63.011719c16.675781-10.488282 27.757812-29.046876 27.757812-50.199219 0-21.148438-11.082031-39.710938-27.757812-50.195313h-63.011719c-16.671875 10.484375-27.757813 29.046875-27.757813 50.195313zm0 0" fill="url(#F)"/><path d="m200.164062 357.292969c0 15.089843 5.644532 28.859375 14.929688 39.324219h88.667969c9.285156-10.464844 14.929687-24.234376 14.929687-39.324219 0-15.085938-5.644531-28.855469-14.929687-39.320313h-88.667969c-9.285156 10.464844-14.929688 24.234375-14.929688 39.320313zm0 0" fill="url(#G)"/><path d="m200.164062 357.292969c0 8.820312 1.929688 17.1875 5.386719 24.710937h107.757813c3.453125-7.523437 5.382812-15.890625 5.382812-24.710937 0-8.816407-1.929687-17.183594-5.382812-24.707031h-107.757813c-3.457031 7.523437-5.386719 15.890624-5.386719 24.707031zm0 0" fill="url(#H)"/><path d="m200.164062 357.292969c0 5.105469.648438 10.058593 1.863282 14.785156h114.800781c1.214844-4.726563 1.863281-9.679687 1.863281-14.785156 0-5.101563-.648437-10.054688-1.863281-14.78125h-114.800781c-1.214844 4.726562-1.863282 9.679687-1.863282 14.78125zm0 0" fill="url(#I)"/><path d="m254.722656 298.21875c-30.527344 2.398438-54.554687 27.929688-54.554687 59.078125 0 31.144531 24.027343 56.675781 54.554687 59.074219 30.53125-2.398438 54.554688-27.929688 54.554688-59.074219 0-31.148437-24.023438-56.679687-54.554688-59.078125zm0 0" fill="url(#J)"/><path d="m257.789062 303.640625c-2.035156-.277344-4.097656-.277344-6.132812 0-26.421875 3.59375-46.785156 26.246094-46.785156 53.652344 0 27.410156 20.363281 50.058593 46.785156 53.652343 2.035156.277344 4.097656.277344 6.132812 0 26.421876-3.59375 46.785157-26.242187 46.785157-53.652343 0-27.40625-20.363281-50.058594-46.785157-53.652344zm0 0" fill="url(#K)"/><path d="m294.109375 357.292969c0-23.878907-17.742187-43.234375-39.628906-43.234375s-39.628907 19.355468-39.628907 43.234375c0 23.882812 17.742188 43.238281 39.628907 43.238281s39.628906-19.355469 39.628906-43.238281zm0 0" fill="url(#L)"/><path d="m265.363281 315.710938c-4.933593-1.535157-10.207031-1.535157-15.140625 0-16.59375 5.15625-28.746094 21.820312-28.746094 41.582031 0 20.152343 12.632813 37.078125 29.726563 41.875 4.304687 1.210937 8.875 1.210937 13.179687 0 17.09375-4.796875 29.726563-21.722657 29.726563-41.875 0-19.761719-12.152344-36.425781-28.746094-41.582031zm0 0" fill="url(#M)"/><path d="m293.660156 363.84375-26.234375-26.234375c-.476562-.832031-1.464843-1.515625-2.96875-2.054687-1.546875-.554688-3.191406-.933594-4.933593-1.140626l-2.300782-2.054687c-.046875-.324219-.238281-.621094-.589844-.878906-.40625-.296875-.84375-.449219-1.316406-.449219-.511718 0-.949218.152344-1.3125.449219-.363281.296875-.546875.640625-.546875 1.023437v1.863282c-3.464843.382812-6.359375 1.539062-8.691406 3.460937-2.328125 1.925781-3.496094 4.746094-3.496094 8.460937 0 1.320313.152344 2.527344.449219 3.613282.300781 1.089844.792969 2.039062 1.476562 2.847656.683594.8125 1.335938 1.503906 1.957032 2.082031.03125.03125.070312.0625.101562.089844l8.203125 8.222656v10.726563c-1.894531-.128906-3.5625-.617188-5.007812-1.46875-1.441407-.855469-2.574219-1.652344-3.402344-2.402344-.824219-.746094-1.492187-1.121094-1.996094-1.121094-.765625 0-1.445312.40625-2.042969 1.21875-.59375.808594-.890624 1.621094-.890624 2.429688 0 1.332031.769531 2.640625 2.304687 3.929687l22.542969 22.542969c14.921875-4.453125 26.332031-18.183594 28.695312-35.15625zm0 0" fill="url(#N)"/><path d="m240.117188 372.53125c0-.8125.296874-1.621094.890624-2.433594.597657-.808594 1.277344-1.214844 2.039063-1.214844.507813 0 1.175781.371094 2 1.117188.824219.75 1.960937 1.546875 3.402344 2.402344 1.445312.851562 3.113281 1.34375 5.007812 1.472656v-15.042969c-1.28125-.46875-2.269531-.839843-2.949219-1.121093-.6875-.277344-1.59375-.679688-2.726562-1.214844-1.132812-.53125-2.011719-1.085938-2.628906-1.664063-.621094-.578125-1.273438-1.269531-1.957032-2.082031-.683593-.808594-1.175781-1.757812-1.476562-2.847656-.296875-1.085938-.449219-2.292969-.449219-3.613282 0-3.714843 1.167969-6.535156 3.496094-8.460937 2.332031-1.921875 5.226563-3.078125 8.691406-3.460937v-1.863282c0-.382812.183594-.726562.546875-1.023437.359375-.296875.800782-.449219 1.3125-.449219.472656 0 .910156.152344 1.316406.449219.402344.296875.609376.640625.609376 1.023437v1.734375c2.605468.085938 5.011718.523438 7.214843 1.316407 2.199219.789062 3.300781 1.890624 3.300781 3.300781 0 .769531-.257812 1.570312-.773437 2.40625-.519531.832031-1.210937 1.25-2.070313 1.25-.339843 0-1.277343-.363281-2.808593-1.089844s-3.152344-1.15625-4.863281-1.285156v13c1.699218.640625 3.113281 1.25 4.238281 1.824219 1.128906.578124 2.320312 1.378906 3.574219 2.402343 1.253906 1.023438 2.199218 2.3125 2.835937 3.871094.640625 1.558594.957031 3.382813.957031 5.472656 0 3.820313-1.039062 6.855469-3.125 9.109375-2.082031 2.253906-4.910156 3.636719-8.480468 4.152344v2.140625c0 .378906-.207032.714844-.609376 1.007813-.40625.292968-.84375.441406-1.316406.441406-.511718 0-.949218-.148438-1.3125-.441406-.363281-.292969-.546875-.628907-.546875-1.007813v-1.949219c-3.71875-.042968-6.875-.894531-9.460937-2.554687-2.585938-1.660157-3.878906-3.351563-3.878906-5.074219zm7.503906-26.882812c0 1.664062.515625 2.933593 1.554687 3.808593 1.035157.875 2.589844 1.695313 4.664063 2.460938v-11.65625c-4.148438.511719-6.21875 2.308593-6.21875 5.386719zm9.234375 28.097656c3.761719-.683594 5.644531-2.796875 5.644531-6.335938 0-1.878906-.492188-3.351562-1.476562-4.417968-.984376-1.0625-2.371094-1.980469-4.167969-2.75zm0 0" fill="url(#O)"/><path d="m476.457031 342.265625c0 41.03125-33.261719 74.292969-74.292969 74.292969s-74.292968-33.261719-74.292968-74.292969 33.261718-74.292969 74.292968-74.292969 74.292969 33.261719 74.292969 74.292969zm0 0" fill="url(#P)"/><path d="m327.871094 342.265625c0 26.515625 13.894531 49.78125 34.796875 62.929687h78.992187c20.902344-13.148437 34.796875-36.414062 34.796875-62.929687s-13.894531-49.785156-34.796875-62.929687h-78.992187c-20.902344 13.148437-34.796875 36.414062-34.796875 62.929687zm0 0" fill="url(#Q)"/><path d="m327.871094 342.265625c0 18.914063 7.074218 36.175781 18.714844 49.292969h111.15625c11.640624-13.117188 18.714843-30.378906 18.714843-49.292969 0-18.917969-7.074219-36.179687-18.714843-49.292969h-111.15625c-11.640626 13.113282-18.714844 30.375-18.714844 49.292969zm0 0" fill="url(#R)"/><path d="m327.871094 342.265625c0 11.054687 2.417968 21.542969 6.75 30.972656h135.085937c4.328125-9.429687 6.75-19.917969 6.75-30.972656s-2.421875-21.546875-6.75-30.976563h-135.085937c-4.332032 9.433594-6.75 19.921876-6.75 30.976563zm0 0" fill="url(#S)"/><path d="m327.871094 342.265625c0 6.398437.8125 12.609375 2.332031 18.53125h143.917969c1.523437-5.921875 2.335937-12.132813 2.335937-18.53125s-.8125-12.609375-2.335937-18.53125h-143.917969c-1.519531 5.921875-2.332031 12.132813-2.332031 18.53125zm0 0" fill="url(#T)"/><path d="m396.265625 268.207031c-38.273437 3.007813-68.394531 35.015625-68.394531 74.058594s30.121094 71.050781 68.394531 74.058594c38.269531-3.003907 68.390625-35.015625 68.390625-74.058594s-30.121094-71.050781-68.390625-74.058594zm0 0" fill="url(#U)"/><path d="m400.109375 275.003906c-2.550781-.347656-5.140625-.347656-7.691406 0-33.121094 4.507813-58.648438 32.902344-58.648438 67.261719s25.527344 62.753906 58.648438 67.257813c2.550781.347656 5.140625.347656 7.691406 0 33.121094-4.503907 58.648437-32.898438 58.648437-67.257813s-25.527343-62.753906-58.648437-67.261719zm0 0" fill="url(#V)"/><path d="m445.640625 342.265625c0-29.9375-22.242187-54.203125-49.679687-54.203125-27.433594 0-49.675782 24.265625-49.675782 54.203125 0 29.933594 22.242188 54.203125 49.675782 54.203125 27.4375 0 49.679687-24.269531 49.679687-54.203125zm0 0" fill="url(#W)"/><path d="m409.601562 290.132812c-6.183593-1.921874-12.792968-1.921874-18.976562 0-20.804688 6.46875-36.039062 27.355469-36.039062 52.132813 0 25.257813 15.835937 46.480469 37.269531 52.496094 5.394531 1.511719 11.121093 1.511719 16.519531 0 21.429688-6.015625 37.269531-27.238281 37.269531-52.496094-.003906-24.777344-15.238281-45.664063-36.042969-52.132813zm0 0" fill="url(#X)"/><path d="m445.074219 350.472656-32.886719-32.886718c-.597656-1.039063-1.835938-1.898438-3.722656-2.578126-1.9375-.695312-4-1.167968-6.183594-1.429687l-2.886719-2.574219c-.058593-.40625-.296875-.773437-.738281-1.101562-.511719-.375-1.058594-.5625-1.648438-.5625-.644531 0-1.195312.1875-1.648437.5625-.457031.375-.683594.804687-.683594 1.285156v2.332031c-4.34375.484375-7.972656 1.929688-10.894531 4.34375-2.921875 2.410157-4.382812 5.945313-4.382812 10.601563 0 1.660156.1875 3.167968.5625 4.535156.375 1.363281.992187 2.554688 1.847656 3.570312.859375 1.015626 1.675781 1.882813 2.453125 2.605469.042969.039063.085937.078125.128906.117188l10.28125 10.304687v13.449219c-2.375-.160156-4.464844-.773437-6.273437-1.84375-1.808594-1.070313-3.230469-2.074219-4.265626-3.011719-1.035156-.933594-1.871093-1.402344-2.507812-1.402344-.957031 0-1.808594.507813-2.554688 1.523438-.746093 1.015625-1.121093 2.035156-1.121093 3.050781 0 1.664063.96875 3.304688 2.890625 4.921875l28.261718 28.261719c18.707032-5.582031 33.011719-22.792969 35.972657-44.074219zm0 0" fill="url(#Y)"/><path d="m377.953125 361.363281c0-1.015625.371094-2.03125 1.117187-3.046875.746094-1.015625 1.601563-1.527344 2.558594-1.527344.636719 0 1.472656.46875 2.507813 1.40625 1.035156.9375 2.453125 1.941407 4.261719 3.007813 1.8125 1.070313 3.902343 1.683594 6.277343 1.847656v-18.855469c-1.605469-.589843-2.839843-1.058593-3.699219-1.40625-.855468-.34375-1.996093-.855468-3.414062-1.523437-1.421875-.667969-2.519531-1.363281-3.296875-2.085937-.777344-.722657-1.597656-1.589844-2.453125-2.609376-.855469-1.015624-1.472656-2.203124-1.847656-3.570312-.375-1.363281-.5625-2.875-.5625-4.53125 0-4.65625 1.457031-8.191406 4.378906-10.601562 2.921875-2.414063 6.554688-3.859376 10.894531-4.34375v-2.332032c0-.480468.230469-.910156.6875-1.285156.453125-.375 1.003907-.5625 1.648438-.5625.585937 0 1.136719.1875 1.648437.5625.507813.375.761719.804688.761719 1.285156v2.171875c3.269531.105469 6.285156.65625 9.046875 1.648438 2.757812.992187 4.140625 2.371093 4.140625 4.140625 0 .964844-.328125 1.96875-.976563 3.011718-.648437 1.046876-1.511718 1.570313-2.59375 1.570313-.425781 0-1.601562-.457031-3.519531-1.367187-1.921875-.910157-3.953125-1.449219-6.097656-1.609376v16.292969c2.132813.804688 3.90625 1.566407 5.316406 2.289063 1.414063.722656 2.90625 1.726562 4.480469 3.007812 1.570312 1.285156 2.757812 2.902344 3.558594 4.855469.796875 1.953125 1.199218 4.238281 1.199218 6.859375 0 4.789062-1.308593 8.597656-3.917968 11.421875-2.613282 2.824219-6.160156 4.558594-10.636719 5.203125v2.6875c0 .472656-.253906.894531-.761719 1.261719-.511718.371093-1.0625.554687-1.648437.554687-.644531 0-1.195313-.183594-1.648438-.550781-.457031-.371094-.6875-.792969-.6875-1.265625v-2.445312c-4.660156-.054688-8.613281-1.121094-11.855469-3.203126-3.246093-2.078124-4.867187-4.199218-4.867187-6.363281zm9.40625-33.699219c0 2.085938.648437 3.679688 1.949219 4.773438 1.300781 1.097656 3.25 2.128906 5.851562 3.089844v-14.617188c-5.199218.644532-7.800781 2.894532-7.800781 6.753906zm11.578125 35.222657c4.714844-.855469 7.074219-3.5 7.074219-7.941407 0-2.351562-.617188-4.199218-1.847657-5.535156-1.234374-1.335937-2.976562-2.488281-5.226562-3.449218zm0 0" fill="url(#Z)"/><path d="m446.21875 66.574219-53.859375 29.316406c-9.449219 5.144531-9.84375 18.5625-.714844 24.25l14.0625 8.769531c-18.609375 25.367188-42.332031 47.992188-70.8125 67.480469-30.074219 20.574219-65.492187 37.742187-105.265625 51.023437-68.21875 22.769532-126.261718 26.207032-127.097656 26.253907-7.949219.425781-14.042969 7.21875-13.617188 15.164062.410157 7.6875 6.773438 13.644531 14.378907 13.644531.257812 0 .523437-.007812.785156-.023437 2.496094-.132813 62-3.546875 133.933594-27.449219 42.449219-14.105468 80.398437-32.464844 112.789062-54.570312 32.011719-21.847656 58.636719-47.410156 79.441407-76.234375l12.660156 7.894531c9.128906 5.6875 21-.578125 21.457031-11.324219l2.601563-61.265625c.464843-10.90625-11.152344-18.148437-20.742188-12.929687zm0 0" fill="url(#aa)"/><g fill="#a1b5d8"><path d="m100.1875 87.605469h117.308594v15.058593h-117.308594zm0 0"/><path d="m100.1875 124.816406h117.308594v15.058594h-117.308594zm0 0"/><path d="m100.1875 162.027344h93.414062v15.058594h-93.414062zm0 0"/></g></svg>