<?xml version="1.0"?>
<svg xmlns="http://www.w3.org/2000/svg" xmlns:xlink="http://www.w3.org/1999/xlink" xmlns:svgjs="http://svgjs.com/svgjs" version="1.1" width="512" height="512" x="0" y="0" viewBox="0 0 362.77 362.77" style="enable-background:new 0 0 512 512" xml:space="preserve" class=""><g>
<g xmlns="http://www.w3.org/2000/svg">
	<g>
		<path d="M230.541,62.109C210.36,28.535,189.606,6.022,185.655,1.855C184.54,0.676,182.984,0,181.386,0    c-1.595,0-3.149,0.674-4.265,1.851c-3.956,4.172-24.71,26.686-44.889,60.258c-26.349,43.836-39.71,86.116-39.71,125.664    c0,47.975,9.322,92.065,26.249,124.148l1.455,2.758h122.318l1.457-2.758c16.927-32.083,26.25-76.173,26.25-124.148    C270.251,148.225,256.891,105.945,230.541,62.109z M236.273,304.336H126.5c-15.258-30.383-23.635-71.613-23.634-116.563    c0-37.645,12.863-78.132,38.231-120.336c16.23-27.001,33.182-46.993,40.289-54.934c7.106,7.941,24.058,27.932,40.289,54.934    c25.369,42.205,38.232,82.692,38.232,120.336C259.907,232.722,251.53,273.952,236.273,304.336z" fill="#ffffff" data-original="#000000" style="" class=""/>
	</g>
</g>
<g xmlns="http://www.w3.org/2000/svg">
	<g>
		<path d="M359.609,289.252l-91.797-82.5l-6.914,7.693l83.089,74.674h-97.49v10.343h109.119c2.345,0,4.473-1.369,5.42-3.483    C362.074,293.673,361.508,290.977,359.609,289.252z" fill="#ffffff" data-original="#000000" style="" class=""/>
	</g>
</g>
<g xmlns="http://www.w3.org/2000/svg">
	<g>
		<path d="M18.784,289.12v-0.001l83.09-74.674l-6.914-7.693L3.142,289.27c-1.881,1.709-2.445,4.406-1.407,6.71    c0.951,2.116,3.079,3.483,5.421,3.483h109.119V289.12H18.784z" fill="#ffffff" data-original="#000000" style="" class=""/>
	</g>
</g>
<g xmlns="http://www.w3.org/2000/svg">
	<g>
		<rect x="138.171" y="309.51" width="10.343" height="38.04" fill="#ffffff" data-original="#000000" style="" class=""/>
	</g>
</g>
<g xmlns="http://www.w3.org/2000/svg">
	<g>
		<rect x="214.261" y="309.51" width="10.343" height="38.04" fill="#ffffff" data-original="#000000" style="" class=""/>
	</g>
</g>
<g xmlns="http://www.w3.org/2000/svg">
	<g>
		<rect x="176.211" y="324.73" width="10.343" height="38.04" fill="#ffffff" data-original="#000000" style="" class=""/>
	</g>
</g>
<g xmlns="http://www.w3.org/2000/svg">
	<g>
		<rect x="140.561" y="53.26" width="81.64" height="10.343" fill="#ffffff" data-original="#000000" style="" class=""/>
	</g>
</g>
<g xmlns="http://www.w3.org/2000/svg">
	<g>
		<path d="M181.386,129.343c-19.633,0-35.605,15.972-35.605,35.605s15.972,35.605,35.605,35.605    c19.632,0,35.605-15.972,35.605-35.605C216.991,145.316,201.019,129.343,181.386,129.343z M181.386,190.21    c-13.929,0-25.262-11.333-25.262-25.262s11.333-25.262,25.262-25.262s25.261,11.333,25.261,25.262    C206.648,178.877,195.316,190.21,181.386,190.21z" fill="#ffffff" data-original="#000000" style="" class=""/>
	</g>
</g>
<g xmlns="http://www.w3.org/2000/svg">
</g>
<g xmlns="http://www.w3.org/2000/svg">
</g>
<g xmlns="http://www.w3.org/2000/svg">
</g>
<g xmlns="http://www.w3.org/2000/svg">
</g>
<g xmlns="http://www.w3.org/2000/svg">
</g>
<g xmlns="http://www.w3.org/2000/svg">
</g>
<g xmlns="http://www.w3.org/2000/svg">
</g>
<g xmlns="http://www.w3.org/2000/svg">
</g>
<g xmlns="http://www.w3.org/2000/svg">
</g>
<g xmlns="http://www.w3.org/2000/svg">
</g>
<g xmlns="http://www.w3.org/2000/svg">
</g>
<g xmlns="http://www.w3.org/2000/svg">
</g>
<g xmlns="http://www.w3.org/2000/svg">
</g>
<g xmlns="http://www.w3.org/2000/svg">
</g>
<g xmlns="http://www.w3.org/2000/svg">
</g>
</g></svg>
